<svg width="16" height="16" viewBox="0 0 16 16" fill="none" xmlns="http://www.w3.org/2000/svg">
<path opacity="0.4" d="M8.00001 14.6666C11.6819 14.6666 14.6667 11.6818 14.6667 7.99992C14.6667 4.31802 11.6819 1.33325 8.00001 1.33325C4.31811 1.33325 1.33334 4.31802 1.33334 7.99992C1.33334 11.6818 4.31811 14.6666 8.00001 14.6666Z" fill="#8C8CA6"/>
<path d="M10.6667 7.49992H8.50001V5.33325C8.50001 5.05992 8.27334 4.83325 8.00001 4.83325C7.72668 4.83325 7.50001 5.05992 7.50001 5.33325V7.49992H5.33334C5.06001 7.49992 4.83334 7.72659 4.83334 7.99992C4.83334 8.27325 5.06001 8.49992 5.33334 8.49992H7.50001V10.6666C7.50001 10.9399 7.72668 11.1666 8.00001 11.1666C8.27334 11.1666 8.50001 10.9399 8.50001 10.6666V8.49992H10.6667C10.94 8.49992 11.1667 8.27325 11.1667 7.99992C11.1667 7.72659 10.94 7.49992 10.6667 7.49992Z" fill="#8C8CA6"/>
</svg>
