<svg width="24" height="24" viewBox="0 0 24 24" fill="none" xmlns="http://www.w3.org/2000/svg">
<path d="M0 8C0 3.58172 3.58172 0 8 0H16C20.4183 0 24 3.58172 24 8V16C24 20.4183 20.4183 24 16 24H8C3.58172 24 0 20.4183 0 16V8Z" fill="#21BC99"/>
<path fill-rule="evenodd" clip-rule="evenodd" d="M9.62162 20L6.28453 18.0349V15.3148L4 14V10L6.28453 8.51452V5.95001L9.62162 4L12.0161 5.33583L14.3784 4L17.7182 5.95573V8.67581L20 10V14L17.7182 15.4802V18.0447L14.3784 20L11.988 18.6482L9.62162 20ZM8.40071 7.22081L9.62162 6.55556L10.9189 7.22222V12V16.7778L9.62162 17.4444L8.40071 16.761V14.032L6.14137 12.7482V11.1895L8.40071 9.70595V7.22081ZM13.0811 16.7778L14.3784 17.4444L15.602 16.7698V14.2846L17.8762 12.8011V11.2465L15.602 9.96264V7.23366L14.3784 6.55556L13.0811 7.22222V12V16.7778Z" fill="white"/>
</svg>
