<svg width="90" height="27" viewBox="0 0 90 27" fill="none" xmlns="http://www.w3.org/2000/svg">
<path fill-rule="evenodd" clip-rule="evenodd" d="M8.08554 24.922L3.28582 22.1719V18.3654L0 16.5255V10.9278L3.28582 8.84897V5.26013L8.08554 2.53125L11.5294 4.40064L14.9271 2.53125L19.7307 5.26813V9.07467L23.0127 10.9278V16.5255L19.7307 18.5969V22.1856L14.9271 24.922L11.4891 23.0302L8.08554 24.922ZM8.08554 6.10755L6.32951 7.03852V10.5163L3.07991 12.5923V14.7737L6.32951 16.5703V20.3893L8.08554 21.3457L9.95143 20.4127V13.7266V7.04049L8.08554 6.10755ZM14.9271 21.3457L13.0613 20.4127V13.7266V7.04049L14.9271 6.10755L16.687 7.05651V10.8755L19.958 12.6721V14.8477L16.687 16.9237V20.4015L14.9271 21.3457Z" fill="black"/>
<path d="M87.6014 16.834V9.71875H89.2434V16.834H87.6014Z" fill="black"/>
<path d="M83.0227 15.4229C83.2084 15.7016 83.4738 15.8409 83.8188 15.8409C84.1638 15.8409 84.4291 15.7016 84.6149 15.4229C84.8073 15.1443 84.9035 14.7694 84.9035 14.2984C84.9035 13.8274 84.8073 13.4525 84.6149 13.1739C84.4291 12.8886 84.1638 12.746 83.8188 12.746C83.4738 12.746 83.2084 12.8853 83.0227 13.1639C82.8369 13.4426 82.744 13.8207 82.744 14.2984C82.744 14.7694 82.8369 15.1443 83.0227 15.4229ZM85.7892 16.229C85.2916 16.7398 84.6381 16.9952 83.8287 16.9952C83.0194 16.9952 82.3626 16.7398 81.8584 16.229C81.3542 15.7181 81.1021 15.0746 81.1021 14.2984C81.1021 13.5222 81.3542 12.8787 81.8584 12.3678C82.3626 11.857 83.0194 11.6016 83.8287 11.6016C84.6381 11.6016 85.2916 11.857 85.7892 12.3678C86.2934 12.8787 86.5455 13.5222 86.5455 14.2984C86.5455 15.0746 86.2934 15.7181 85.7892 16.229Z" fill="black"/>
<path d="M77.8982 16.9952C77.0889 16.9952 76.4354 16.7398 75.9378 16.229C75.4402 15.7181 75.1915 15.0746 75.1915 14.2984C75.1915 13.5222 75.4369 12.8787 75.9279 12.3678C76.4188 11.857 77.0623 11.6016 77.8584 11.6016C78.5351 11.6016 79.0891 11.7807 79.5203 12.1389C79.9516 12.4972 80.2037 12.9682 80.2766 13.552H78.7143C78.6015 13.0478 78.3228 12.7957 77.8783 12.7957C77.5334 12.7957 77.2713 12.9284 77.0922 13.1938C76.9197 13.4592 76.8334 13.8274 76.8334 14.2984C76.8334 14.7628 76.923 15.1277 77.1021 15.3931C77.2813 15.6518 77.54 15.7812 77.8783 15.7812C78.3958 15.7812 78.691 15.4893 78.764 14.9054H80.3164C80.2965 15.5092 80.0643 16.01 79.6198 16.4081C79.182 16.7995 78.6081 16.9952 77.8982 16.9952Z" fill="black"/>
<path d="M70.8516 15.4229C71.0374 15.7016 71.3028 15.8409 71.6477 15.8409C71.9927 15.8409 72.2581 15.7016 72.4439 15.4229C72.6363 15.1443 72.7325 14.7694 72.7325 14.2984C72.7325 13.8274 72.6363 13.4525 72.4439 13.1739C72.2581 12.8886 71.9927 12.746 71.6477 12.746C71.3028 12.746 71.0374 12.8853 70.8516 13.1639C70.6659 13.4426 70.573 13.8207 70.573 14.2984C70.573 14.7694 70.6659 15.1443 70.8516 15.4229ZM73.6181 16.229C73.1206 16.7398 72.4671 16.9952 71.6577 16.9952C70.8483 16.9952 70.1915 16.7398 69.6873 16.229C69.1831 15.7181 68.931 15.0746 68.931 14.2984C68.931 13.5222 69.1831 12.8787 69.6873 12.3678C70.1915 11.857 70.8483 11.6016 71.6577 11.6016C72.4671 11.6016 73.1206 11.857 73.6181 12.3678C74.1223 12.8787 74.3744 13.5222 74.3744 14.2984C74.3744 15.0746 74.1223 15.7181 73.6181 16.229Z" fill="black"/>
<path d="M67.2422 16.892C66.7247 16.892 66.3234 16.7891 66.0381 16.5835C65.7594 16.3712 65.6201 16.0063 65.6201 15.4888V12.7522H64.9434V11.7371H65.6201V10.125H67.2024V11.7371H68.1279V12.7522H67.2024V15.1405C67.2024 15.3263 67.2488 15.4557 67.3417 15.5286C67.4412 15.6016 67.5839 15.6381 67.7696 15.6381C67.8227 15.6381 67.8924 15.6381 67.9786 15.6381C68.0649 15.6315 68.1146 15.6281 68.1279 15.6281V16.8124C67.9421 16.8654 67.6469 16.892 67.2422 16.892Z" fill="black"/>
<path d="M60.7505 15.4229C60.9363 15.7016 61.2017 15.8409 61.5466 15.8409C61.8916 15.8409 62.157 15.7016 62.3427 15.4229C62.5351 15.1443 62.6313 14.7694 62.6313 14.2984C62.6313 13.8274 62.5351 13.4525 62.3427 13.1739C62.157 12.8886 61.8916 12.746 61.5466 12.746C61.2017 12.746 60.9363 12.8853 60.7505 13.1639C60.5648 13.4426 60.4719 13.8207 60.4719 14.2984C60.4719 14.7694 60.5648 15.1443 60.7505 15.4229ZM63.517 16.229C63.0194 16.7398 62.366 16.9952 61.5566 16.9952C60.7472 16.9952 60.0904 16.7398 59.5862 16.229C59.082 15.7181 58.8299 15.0746 58.8299 14.2984C58.8299 13.5222 59.082 12.8787 59.5862 12.3678C60.0904 11.857 60.7472 11.6016 61.5566 11.6016C62.366 11.6016 63.0194 11.857 63.517 12.3678C64.0212 12.8787 64.2733 13.5222 64.2733 14.2984C64.2733 15.0746 64.0212 15.7181 63.517 16.229Z" fill="black"/>
<path d="M54.8489 16.8349V11.7398H56.4013V12.5359H56.4311C56.7761 11.9521 57.2405 11.6602 57.8243 11.6602C57.9769 11.6602 58.0831 11.6734 58.1428 11.7V13.0932H58.103C57.5988 13.0202 57.2007 13.1097 56.9088 13.3619C56.6169 13.6073 56.4709 14.0021 56.4709 14.5461V16.8349H54.8489Z" fill="black"/>
<path d="M47.959 16.834V9.71875H51.1634C51.9993 9.71875 52.6462 9.93768 53.1039 10.3755C53.5816 10.82 53.8204 11.4039 53.8204 12.127C53.8204 12.817 53.5982 13.3776 53.1537 13.8088C52.7158 14.24 52.1353 14.4556 51.4122 14.4556H49.7503V16.834H47.959ZM49.7503 13.0624H51.0539C51.3658 13.0624 51.6079 12.9762 51.7804 12.8037C51.9595 12.6312 52.0491 12.4023 52.0491 12.117C52.0491 11.8318 51.9595 11.6095 51.7804 11.4503C51.6079 11.2844 51.3658 11.2015 51.0539 11.2015H49.7503V13.0624Z" fill="black"/>
<path d="M40.9116 16.834V11.2115H38.8418V9.71875H44.7629V11.2115H42.6731V16.834H40.9116Z" fill="black"/>
<path d="M35.9223 16.834V9.71875H37.6837V16.834H35.9223Z" fill="black"/>
<path d="M27.9784 16.834L30.536 9.71875H32.3471L34.9146 16.834H33.0636L32.6457 15.5503H30.1578L29.7498 16.834H27.9784ZM30.5658 14.2865H32.2377L31.7003 12.5649L31.4216 11.5598H31.4017C31.2889 11.9844 31.1928 12.3194 31.1131 12.5649L30.5658 14.2865Z" fill="black"/>
</svg>
