<svg width="16" height="16" viewBox="0 0 16 16" fill="none" xmlns="http://www.w3.org/2000/svg">
    <path fill-rule="evenodd" clip-rule="evenodd"
        d="M8 16C12.4183 16 16 12.4183 16 8C16 3.58172 12.4183 0 8 0C3.58172 0 0 3.58172 0 8C0 12.4183 3.58172 16 8 16ZM11.0303 6.53033C11.3232 6.23744 11.3232 5.76256 11.0303 5.46967C10.7374 5.17678 10.2626 5.17678 9.96967 5.46967L6.5 8.93934L5.53033 7.96967C5.23744 7.67678 4.76256 7.67678 4.46967 7.96967C4.17678 8.26256 4.17678 8.73744 4.46967 9.03033L5.96967 10.5303C6.11032 10.671 6.30109 10.75 6.5 10.75C6.69891 10.75 6.88968 10.671 7.03033 10.5303L11.0303 6.53033Z"
        fill="#1FAD8E" />
</svg>