<svg width="24" height="24" viewBox="0 0 24 24" fill="none" xmlns="http://www.w3.org/2000/svg">
<path d="M9.16999 15.5794C8.97999 15.5794 8.78999 15.5094 8.63999 15.3594C8.34999 15.0694 8.34999 14.5894 8.63999 14.2994L14.3 8.63938C14.59 8.34938 15.07 8.34938 15.36 8.63938C15.65 8.92937 15.65 9.40937 15.36 9.69937L9.69998 15.3594C9.55998 15.5094 9.35999 15.5794 9.16999 15.5794Z" fill="#8C8CA6"/>
<path d="M14.83 15.5794C14.64 15.5794 14.45 15.5094 14.3 15.3594L8.63999 9.69937C8.34999 9.40937 8.34999 8.92937 8.63999 8.63938C8.92999 8.34938 9.40998 8.34938 9.69998 8.63938L15.36 14.2994C15.65 14.5894 15.65 15.0694 15.36 15.3594C15.21 15.5094 15.02 15.5794 14.83 15.5794Z" fill="#8C8CA6"/>
</svg>
