<svg xmlns="http://www.w3.org/2000/svg" width="26" height="27" viewBox="0 0 26 27" fill="none">
    <path
        d="M0.00759216 13.0004C0.00759216 10.6006 -0.018392 8.21126 0.0257811 5.82448C0.0647574 3.8745 0.787117 2.22352 2.42932 1.06393C3.2756 0.485002 4.25996 0.140539 5.28238 0.0655451C5.78502 0.0178871 6.28978 -0.0038081 6.79466 0.00054585H19.7556C21.0989 0.00054585 22.393 0.239743 23.5233 1.04053C24.2121 1.51311 24.7858 2.13475 25.2019 2.85937C25.618 3.58399 25.8657 4.39302 25.9268 5.22649C25.9755 5.73631 25.9971 6.24836 25.9918 6.76047C25.9918 11.2142 26.0204 15.668 25.971 20.1191C25.945 22.4409 24.9628 24.2791 22.8243 25.3581C21.8793 25.8087 20.841 26.0288 19.7945 26.0003H6.19962C4.80427 26.0003 3.46609 25.7247 2.31499 24.8589C1.66276 24.3747 1.12349 23.7544 0.734503 23.0411C0.345517 22.3278 0.116108 21.5383 0.0621589 20.7275C0.0180502 20.214 -0.000161841 19.6985 0.00759216 19.1831V13.0004ZM12.9997 3.9005C11.1973 3.89691 9.43426 4.42822 7.93364 5.42725C6.43303 6.42628 5.2622 7.84815 4.56924 9.51304C3.87628 11.1779 3.69231 13.011 4.04061 14.7805C4.3889 16.55 5.25382 18.1765 6.52595 19.4541C7.79809 20.7317 9.42032 21.6032 11.1875 21.9582C12.9546 22.3133 14.7873 22.136 16.4537 21.4488C18.1202 20.7616 19.5455 19.5954 20.5495 18.0976C21.5535 16.5998 22.0911 14.8377 22.0941 13.0342C22.1013 11.8346 21.8714 10.6454 21.4176 9.53505C20.9638 8.42469 20.295 7.41507 19.4498 6.56428C18.6046 5.71348 17.5996 5.0383 16.4926 4.57758C15.3857 4.11685 14.1986 3.87968 12.9997 3.8797V3.9005Z"
        fill="#005CFE" />
    <path
        d="M12.9981 3.87895C14.8007 3.88101 16.5622 4.41799 18.0598 5.42196C19.5574 6.42592 20.7238 7.85177 21.4114 9.51912C22.0989 11.1865 22.2769 13.0204 21.9226 14.789C21.5683 16.5575 20.6978 18.1812 19.4212 19.4546C18.1445 20.728 16.5191 21.594 14.7505 21.9429C12.9819 22.2918 11.1496 22.1081 9.48539 21.4148C7.8212 20.7216 6.39987 19.5501 5.40121 18.0485C4.40255 16.5468 3.87142 14.7826 3.87502 12.9789C3.87501 11.7814 4.11119 10.5958 4.57002 9.48985C5.02884 8.38393 5.70129 7.3795 6.54882 6.53412C7.39635 5.68874 8.40229 5.01904 9.50899 4.56341C10.6157 4.10779 11.8014 3.87519 12.9981 3.87895ZM10.0619 12.9997V15.2746C10.0505 15.3635 10.0596 15.4538 10.0884 15.5386C10.1172 15.6234 10.1651 15.7005 10.2283 15.764C10.2915 15.8274 10.3683 15.8756 10.453 15.9048C10.5376 15.934 10.6278 15.9435 10.7167 15.9324H15.2639C15.7134 15.9324 15.9291 15.7114 15.9291 15.2564V10.7377C15.943 10.6465 15.9354 10.5533 15.9069 10.4656C15.8783 10.3779 15.8297 10.2981 15.7647 10.2326C15.6998 10.1672 15.6204 10.1178 15.533 10.0886C15.4456 10.0594 15.3525 10.051 15.2613 10.0643H10.7426C10.2749 10.0643 10.0644 10.2827 10.0619 10.7559C10.0593 11.5047 10.0619 12.2509 10.0619 12.9997Z"
        fill="#FDFDFE" />
    <path
        d="M10.0634 13.0001V10.7563C10.0634 10.2831 10.2764 10.0647 10.7441 10.0647H15.2628C15.354 10.0515 15.4471 10.0598 15.5345 10.089C15.6219 10.1183 15.7013 10.1676 15.7662 10.2331C15.8312 10.2986 15.8798 10.3783 15.9084 10.466C15.9369 10.5538 15.9445 10.6469 15.9306 10.7381V15.2569C15.9306 15.7119 15.7149 15.9329 15.2654 15.9329H10.7182C10.6293 15.9439 10.5391 15.9344 10.4545 15.9052C10.3698 15.8761 10.293 15.8279 10.2298 15.7644C10.1666 15.7009 10.1187 15.6238 10.0899 15.539C10.0611 15.4542 10.052 15.3639 10.0634 15.2751C10.0582 14.5159 10.0634 13.7593 10.0634 13.0001Z"
        fill="#005CFE" />
</svg>