<svg width="19" height="19" viewBox="0 0 19 19" fill="none" xmlns="http://www.w3.org/2000/svg">
<path fill-rule="evenodd" clip-rule="evenodd" d="M9.55472 2.36198L3.38868 5.93024V13.0667L9.55472 16.6349L15.7207 13.0667V5.93024L9.55472 2.36198ZM9.81369 0.56369C9.65342 0.470957 9.45602 0.470957 9.29574 0.56369L1.9644 4.80628C1.80416 4.89905 1.70544 5.07038 1.70544 5.25586V13.7411C1.70544 13.9265 1.80416 14.0979 1.9644 14.1906L9.29574 18.4332C9.45602 18.526 9.65342 18.526 9.81369 18.4332L17.1451 14.1906C17.3053 14.0979 17.404 13.9265 17.404 13.7411V5.25586C17.404 5.07038 17.3053 4.89905 17.1451 4.80628L9.81369 0.56369Z" fill="#FF9211"/>
<path d="M9.55478 4.94635L5.62209 7.22216V11.7738L9.52889 14.0346C9.54491 14.0439 9.55478 14.061 9.55478 14.0796V14.8588C9.55478 14.8988 9.51164 14.9238 9.47709 14.9038L5.03945 12.3358C4.91924 12.2662 4.84521 12.1377 4.84521 11.9986V6.99735C4.84521 6.85825 4.91924 6.72973 5.03945 6.6602L9.36055 4.15959C9.48076 4.09003 9.62881 4.09003 9.74901 4.15959L14.2044 6.72855C14.2386 6.74832 14.2389 6.79773 14.205 6.81794C13.942 6.97425 13.8074 7.04378 13.5132 7.20777C13.4973 7.21668 13.4778 7.21658 13.462 7.20743L9.55478 4.94635Z" fill="#FF9211"/>
<path d="M10.2022 9.5932C10.2022 9.57402 10.2128 9.55636 10.2297 9.54735L14.14 7.46123C14.1745 7.44284 14.2161 7.46789 14.2161 7.50708V12.5819C14.2161 12.6005 14.2062 12.6176 14.1903 12.6269L10.28 14.9026C10.2455 14.9227 10.2022 14.8977 10.2022 14.8577V9.5932Z" fill="#FF9211"/>
</svg>
