<svg width="16" height="16" viewBox="0 0 16 16" fill="none" xmlns="http://www.w3.org/2000/svg">
<path opacity="0.4" d="M13.9925 2.85652L13.0936 1.95384C12.2697 1.12639 10.9963 1.12639 10.1723 1.95384L8.67416 3.53353L12.4944 7.36992L14.0674 5.79023C14.442 5.41412 14.6667 4.88755 14.6667 4.36099C14.6667 3.83443 14.367 3.23264 13.9925 2.85652Z" fill="#8C8CA6"/>
<path d="M10.8464 7.29482L7.85018 4.28589L1.93258 10.2285C1.55805 10.6046 1.33333 11.1312 1.33333 11.733V14.0649C1.33333 14.3658 1.55805 14.6667 1.93258 14.6667H4.32958C4.85393 14.6667 5.37827 14.441 5.82771 14.0649L11.7453 8.12228L10.8464 7.29482Z" fill="#8C8CA6"/>
</svg>
