<svg width="40" height="40" viewBox="0 0 40 40" fill="none" xmlns="http://www.w3.org/2000/svg">
<path d="M0.80445 25.6143C-0.3061 21.818 -0.26599 17.7778 0.919705 14.0043C2.1054 10.2309 4.38343 6.8937 7.46574 4.41484C10.5481 1.93598 14.2962 0.426725 18.2363 0.077926C22.1764 -0.270873 26.1314 0.556451 29.6013 2.45527C33.0712 4.3541 35.9001 7.23915 37.7303 10.7456C39.5605 14.2521 40.3098 18.2225 39.8835 22.1548C39.4572 26.0871 37.8743 29.8047 35.3352 32.8375C32.796 35.8703 29.4145 38.0821 25.6183 39.1932C23.0974 39.9319 20.4556 40.1666 17.8439 39.8839C15.2323 39.6011 12.7019 38.8066 10.3975 37.5455C8.09302 36.2845 6.05968 34.5817 4.41367 32.5344C2.76765 30.4872 1.54121 28.1357 0.80445 25.6143Z" fill="#3C3C3C"/>
<path d="M19.6137 24.8632L27.3558 21.4193L20.1099 7.76279L12.0896 20.9764L19.6137 24.8632Z" fill="white"/>
<path d="M20.1099 7.76279L19.9238 24.8725L12.0896 20.9764L20.1099 7.76279Z" fill="#E7E9EE"/>
<path d="M19.8794 33.474L27.9321 22.6574L19.8794 26.2549L12.0635 22.2018L19.8794 33.474Z" fill="white"/>
<path d="M19.8256 17.5341L27.3576 21.417L19.6155 24.8609L12.0913 20.974L19.8256 17.5341Z" fill="#AEAEAE" fill-opacity="0.7"/>
<path d="M12.0913 20.974L19.8256 17.5341L19.6155 24.8609L12.0913 20.974Z" fill="#929292"/>
<path d="M12.0439 22.2266L19.8598 26.2797L19.8598 33.4742L12.0439 22.2266Z" fill="#E7E9EE"/>
</svg>
