<svg width="24" height="24" viewBox="0 0 24 24" fill="none" xmlns="http://www.w3.org/2000/svg">
<rect width="24" height="24" rx="8" fill="#232631"/>
<path d="M12.0237 4.08615V4.09403C12.0316 4.13344 12.0316 4.18073 12.0316 4.22802V9.91078C12.0237 9.9423 12.0001 9.95019 11.9764 9.96595C11.8109 10.0448 11.6533 10.1157 11.4877 10.1866C11.2592 10.2891 11.0227 10.3994 10.7941 10.5019L9.96656 10.8802C9.73798 10.9827 9.50941 11.0852 9.28872 11.1876C9.02074 11.3137 8.74488 11.432 8.4769 11.5581C8.24833 11.6605 8.01976 11.7709 7.7833 11.8733C7.59414 11.96 7.40498 12.0389 7.2237 12.1256C7.20794 12.1334 7.19217 12.1413 7.17641 12.1413C7.16853 12.1413 7.16853 12.1413 7.16064 12.1334L7.37345 11.7788C7.7833 11.1009 8.18527 10.431 8.59513 9.75314C9.02862 9.02802 9.47 8.30289 9.9035 7.57777C10.3055 6.90782 10.7153 6.23787 11.1173 5.56792C11.4089 5.07925 11.7084 4.59058 12.0001 4.10191C12.0079 4.08615 12.0158 4.07826 12.0158 4.0625H12.0237C12.0158 4.07038 12.0237 4.07826 12.0237 4.08615Z" fill="#8A92B2"/>
<path d="M16.863 12.1338L16.8709 12.1417L15.7122 12.8274L12.0709 14.9791C12.0551 14.987 12.0393 14.9949 12.0315 15.0028C12.0078 15.0028 12.0078 14.9791 12.0078 14.9712V14.9003V10.0294C12.0078 10.0057 12.0078 9.97419 12.0157 9.95055C12.0236 9.91902 12.0472 9.9269 12.0709 9.93478C12.1733 9.98207 12.2837 10.0294 12.3861 10.0767C12.6935 10.2185 13.0009 10.3604 13.3083 10.4944C13.5763 10.6126 13.8364 10.7387 14.1044 10.857C14.3723 10.9752 14.6403 11.1013 14.9083 11.2195C15.1369 11.322 15.3733 11.4323 15.6019 11.5348C15.8305 11.6372 16.0669 11.7476 16.2955 11.8501C16.4768 11.9289 16.6581 12.0156 16.8393 12.0944C16.8393 12.118 16.8472 12.1259 16.863 12.1338Z" fill="#454A75"/>
<path d="M12.0235 19.8978C12.0235 19.9057 12.0156 19.9136 12.0156 19.9215H12.0077C12.0077 19.9057 11.9919 19.8978 11.984 19.8821C11.4954 19.1963 11.0067 18.5027 10.518 17.817C10.0215 17.1155 9.51705 16.4062 9.0205 15.7047C8.53971 15.0269 8.05104 14.3412 7.57025 13.6633C7.44414 13.482 7.31804 13.3086 7.19193 13.1274C7.18405 13.1116 7.17616 13.1037 7.1604 13.0801C7.18405 13.0801 7.19981 13.0958 7.20769 13.1037C7.89341 13.5057 8.57124 13.9077 9.25695 14.3096C10.0451 14.7747 10.8254 15.2397 11.6136 15.7047L12.0156 15.9412C12.0313 15.9569 12.0313 15.9727 12.0313 15.9885V19.7875C12.0313 19.8269 12.0313 19.8663 12.0235 19.8978Z" fill="#8A92B2"/>
<path d="M7.15259 12.1484V12.1406C7.4048 12.0302 7.64914 11.912 7.90136 11.8016C8.22451 11.6519 8.54766 11.51 8.87081 11.3603C9.11515 11.2499 9.36737 11.1317 9.6117 11.0213C9.97426 10.8558 10.3289 10.6982 10.6915 10.5327C10.9358 10.4223 11.1802 10.312 11.4324 10.1938C11.6058 10.1149 11.7871 10.0361 11.9605 9.95731C11.9762 9.94943 11.9999 9.94154 12.0078 9.92578C12.0156 9.92578 12.0156 9.93366 12.0078 9.94154V14.9465C12.0078 14.9701 11.9999 14.9938 12.0156 15.0095C11.9999 15.0332 11.9841 15.0095 11.9762 15.0016C11.9053 14.9622 11.8344 14.9228 11.7634 14.8755C10.2422 13.977 8.71318 13.0706 7.192 12.1721C7.18411 12.1642 7.16835 12.1563 7.15259 12.1484Z" fill="#62688F"/>
<path d="M16.8472 13.0801H16.855C16.855 13.0958 16.8393 13.1116 16.8314 13.1274C15.3811 15.1687 13.9309 17.218 12.4806 19.2594C12.3309 19.4722 12.1733 19.685 12.0235 19.8978C12.0156 19.8899 12.0156 19.8821 12.0156 19.8742V19.8269V16.0042V15.9333C12.3467 15.7362 12.6698 15.5471 13.0008 15.35C14.2777 14.5934 15.5545 13.8446 16.8235 13.088C16.8314 13.0958 16.8393 13.088 16.8472 13.0801Z" fill="#62688F"/>
<path d="M12.0158 9.94203V9.92626V9.87897V4.1568C12.0158 4.13316 12.0079 4.1174 12.0236 4.09375C13.6236 6.74991 15.2236 9.39818 16.8158 12.0543C16.8315 12.078 16.8552 12.1095 16.8631 12.141C16.7527 12.1016 16.6502 12.0465 16.5478 11.9992C16.4217 11.944 16.2877 11.8809 16.1616 11.8258C16.0828 11.7864 15.9961 11.7548 15.9172 11.7154C15.7833 11.6524 15.6493 11.5972 15.5153 11.5341C15.4365 11.5026 15.3576 11.4632 15.2788 11.4238L14.7586 11.1873C14.6719 11.1479 14.5852 11.1085 14.4906 11.0691L14.1123 10.9036C14.0335 10.8721 13.9547 10.8327 13.8759 10.7933L13.3557 10.5568C13.269 10.5174 13.1823 10.478 13.0877 10.4386L12.7094 10.2731C12.6227 10.2337 12.5438 10.1942 12.4571 10.1548C12.3074 10.0839 12.1576 10.013 12 9.94991C12.0236 9.94203 12.0158 9.94203 12.0158 9.94203Z" fill="#62688F"/>
</svg>
