<svg width="16" height="16" viewBox="0 0 16 16" fill="none" xmlns="http://www.w3.org/2000/svg">
<path opacity="0.4" d="M8.00001 14.6673C11.6819 14.6673 14.6667 11.6825 14.6667 8.00065C14.6667 4.31875 11.6819 1.33398 8.00001 1.33398C4.31811 1.33398 1.33334 4.31875 1.33334 8.00065C1.33334 11.6825 4.31811 14.6673 8.00001 14.6673Z" fill="white"/>
<path d="M8 9.16732C8.27333 9.16732 8.5 8.94065 8.5 8.66732V5.33398C8.5 5.06065 8.27333 4.83398 8 4.83398C7.72667 4.83398 7.5 5.06065 7.5 5.33398V8.66732C7.5 8.94065 7.72667 9.16732 8 9.16732Z" fill="white"/>
<path d="M8.61331 10.4139C8.57998 10.3339 8.53331 10.2606 8.47331 10.1939C8.40665 10.1339 8.33331 10.0872 8.25331 10.0539C8.09331 9.98724 7.90665 9.98724 7.74665 10.0539C7.66665 10.0872 7.59331 10.1339 7.52665 10.1939C7.46665 10.2606 7.41998 10.3339 7.38665 10.4139C7.35331 10.4939 7.33331 10.5806 7.33331 10.6672C7.33331 10.7539 7.35331 10.8406 7.38665 10.9206C7.41998 11.0072 7.46665 11.0739 7.52665 11.1406C7.59331 11.2006 7.66665 11.2472 7.74665 11.2806C7.82665 11.3139 7.91331 11.3339 7.99998 11.3339C8.08665 11.3339 8.17331 11.3139 8.25331 11.2806C8.33331 11.2472 8.40665 11.2006 8.47331 11.1406C8.53331 11.0739 8.57998 11.0072 8.61331 10.9206C8.64665 10.8406 8.66665 10.7539 8.66665 10.6672C8.66665 10.5806 8.64665 10.4939 8.61331 10.4139Z" fill="white"/>
</svg>
