<svg width="24" height="24" viewBox="0 0 24 24" fill="none" xmlns="http://www.w3.org/2000/svg">
    <path
        d="M10.29 10.3398V18.4098C10.29 20.3898 8.67 21.9998 6.7 21.9998C4.72 21.9998 3.11 20.3898 3.11 18.4098C3.11 16.4398 4.72 14.8298 6.7 14.8298C7.53 14.8298 8.28 15.1198 8.89 15.5898V10.7398L10.29 10.3398Z"
        fill="#21BC99" />
    <path
        d="M20.89 7.32031V16.4803C20.89 18.4603 19.28 20.0703 17.3 20.0703C15.33 20.0703 13.71 18.4603 13.71 16.4803C13.71 14.5103 15.33 12.9003 17.3 12.9003C18.14 12.9003 18.89 13.1903 19.5 13.6703V7.72031L20.89 7.32031Z"
        fill="#21BC99" />
    <path opacity="0.4"
        d="M20.89 5.18056V7.32056L8.89 10.7406V6.75056C8.89 5.28056 9.78 4.14056 11.19 3.76056L16.97 2.18056C18.14 1.86056 19.13 1.97056 19.83 2.51056C20.54 3.04056 20.89 3.94056 20.89 5.18056Z"
        fill="#21BC99" />
</svg>