<svg width="20" height="20" viewBox="0 0 20 20" fill="none" xmlns="http://www.w3.org/2000/svg">
<g clip-path="url(#clip0_9072_41313)">
<path d="M9.9993 18.7486C15.8333 18.7486 18.7486 14.8314 18.7486 9.9993C18.7486 5.1672 15.8333 1.25 9.9993 1.25C4.16527 1.25 1.25 5.1672 1.25 9.9993C1.25 14.8314 4.16527 18.7486 9.9993 18.7486Z" fill="url(#paint0_radial_9072_41313)"/>
<path d="M9.9993 18.7486C15.8333 18.7486 18.7486 14.8314 18.7486 9.9993C18.7486 5.1672 15.8333 1.25 9.9993 1.25C4.16527 1.25 1.25 5.1672 1.25 9.9993C1.25 14.8314 4.16527 18.7486 9.9993 18.7486Z" fill="url(#paint1_radial_9072_41313)"/>
<path d="M9.9993 18.7486C15.8333 18.7486 18.7486 14.8314 18.7486 9.9993C18.7486 5.1672 15.8333 1.25 9.9993 1.25C4.16527 1.25 1.25 5.1672 1.25 9.9993C1.25 14.8314 4.16527 18.7486 9.9993 18.7486Z" fill="url(#paint2_radial_9072_41313)" fill-opacity="0.6"/>
<path d="M9.9993 18.7486C15.8333 18.7486 18.7486 14.8314 18.7486 9.9993C18.7486 5.1672 15.8333 1.25 9.9993 1.25C4.16527 1.25 1.25 5.1672 1.25 9.9993C1.25 14.8314 4.16527 18.7486 9.9993 18.7486Z" fill="url(#paint3_radial_9072_41313)"/>
<path d="M9.9993 18.7486C15.8333 18.7486 18.7486 14.8314 18.7486 9.9993C18.7486 5.1672 15.8333 1.25 9.9993 1.25C4.16527 1.25 1.25 5.1672 1.25 9.9993C1.25 14.8314 4.16527 18.7486 9.9993 18.7486Z" fill="url(#paint4_radial_9072_41313)"/>
<path d="M9.9993 18.7486C15.8333 18.7486 18.7486 14.8314 18.7486 9.9993C18.7486 5.1672 15.8333 1.25 9.9993 1.25C4.16527 1.25 1.25 5.1672 1.25 9.9993C1.25 14.8314 4.16527 18.7486 9.9993 18.7486Z" fill="url(#paint5_radial_9072_41313)"/>
<path d="M9.9993 18.7486C15.8333 18.7486 18.7486 14.8314 18.7486 9.9993C18.7486 5.1672 15.8333 1.25 9.9993 1.25C4.16527 1.25 1.25 5.1672 1.25 9.9993C1.25 14.8314 4.16527 18.7486 9.9993 18.7486Z" fill="url(#paint6_radial_9072_41313)"/>
<g filter="url(#filter0_f_9072_41313)">
<path fill-rule="evenodd" clip-rule="evenodd" d="M7.56472 13.7941C7.46488 13.7329 7.33903 13.7326 7.23882 13.7937L6.90913 13.9945L6.46054 14.3251L6.36907 14.3887C5.88201 14.7275 5.24508 14.7612 4.72497 14.4758L4.56777 14.3895L3.91155 13.9737C3.61997 13.789 3.53336 13.4028 3.7181 13.1113C3.90284 12.8197 4.28898 12.7331 4.58055 12.9178L5.20363 13.3126L5.32642 13.38C5.43044 13.4371 5.55783 13.4303 5.65524 13.3626L5.73274 13.3086L6.21188 12.9556L6.5885 12.7262C7.09535 12.4174 7.73337 12.4224 8.23528 12.7392L8.26174 12.7559L8.9682 13.2605L9.03709 13.3132C9.14125 13.3928 9.28407 13.399 9.39469 13.3286L9.52627 13.2448L10.2108 12.7559L10.2373 12.7392C10.7392 12.4224 11.3772 12.4174 11.8841 12.7262L12.2607 12.9556L12.7398 13.3086L12.8173 13.3626C12.9147 13.4303 13.0421 13.4371 13.1462 13.38L13.2689 13.3126L13.892 12.9178C14.1836 12.7331 14.5697 12.8197 14.7545 13.1113C14.9392 13.4028 14.8526 13.789 14.561 13.9737L13.9048 14.3895L13.7476 14.4758C13.2275 14.7612 12.5906 14.7275 12.1035 14.3887L12.012 14.3251L11.5634 13.9945L11.2338 13.7937C11.1335 13.7326 11.0077 13.7329 10.9078 13.7941L10.2256 14.2814L10.0658 14.3831C9.51265 14.7351 8.79859 14.7044 8.27778 14.3061L8.22508 14.2658L7.56472 13.7941Z" fill="url(#paint7_radial_9072_41313)"/>
</g>
<path d="M14.9902 12.9965L14.3506 13.4018L14.2106 13.4786C13.8985 13.6499 13.5164 13.6297 13.2241 13.4264L13.1396 13.3676L12.6758 13.0258L12.3226 12.8107C12.0185 12.6254 11.6357 12.6285 11.3346 12.8185L11.3232 12.8256L10.6396 13.3139L10.5585 13.3655C10.1879 13.6014 9.70936 13.5808 9.36035 13.3139V13.3139L8.67676 12.8256L8.66544 12.8185C8.3643 12.6285 7.98148 12.6254 7.67737 12.8107L7.32422 13.0258L6.86035 13.3676L6.77587 13.4264C6.48363 13.6297 6.10148 13.6499 5.78941 13.4786L5.64941 13.4018L5.00977 12.9965" stroke="url(#paint8_radial_9072_41313)" stroke-width="2" stroke-linecap="round" stroke-linejoin="round"/>
<g filter="url(#filter1_f_9072_41313)">
<path d="M5.90463 10.6734C5.5959 10.8278 5.22048 10.7027 5.06611 10.3939C4.91174 10.0852 5.03688 9.70977 5.34562 9.55541L6.72468 8.86587H8.75012C8.74958 9.10204 8.61594 9.31779 8.40463 9.42344L5.90463 10.6734Z" fill="url(#paint9_radial_9072_41313)" fill-opacity="0.6" style="mix-blend-mode:multiply"/>
<path d="M5.90463 7.05831C5.5959 6.90394 5.22048 7.02908 5.06611 7.33782C4.91174 7.64655 5.03688 8.02197 5.34562 8.17634L6.72468 8.86587H8.75012C8.74958 8.62971 8.61594 8.41396 8.40463 8.30831L5.90463 7.05831Z" fill="url(#paint10_radial_9072_41313)" fill-opacity="0.6" style="mix-blend-mode:multiply"/>
</g>
<path d="M5.90463 10.4007C5.5959 10.555 5.22048 10.4299 5.06611 10.1212C4.91174 9.81243 5.03688 9.43701 5.34562 9.28264L6.72468 8.59311H8.75012C8.74958 8.82928 8.61594 9.04502 8.40463 9.15068L5.90463 10.4007Z" fill="url(#paint11_linear_9072_41313)"/>
<path d="M5.90463 6.78487C5.5959 6.6305 5.22048 6.75564 5.06611 7.06438C4.91174 7.37311 5.03688 7.74854 5.34562 7.9029L6.72468 8.59244H8.75012C8.74958 8.35627 8.61594 8.14052 8.40463 8.03487L5.90463 6.78487Z" fill="url(#paint12_linear_9072_41313)"/>
<g filter="url(#filter2_f_9072_41313)">
<path d="M13.7244 10.6734C14.0331 10.8278 14.4085 10.7027 14.5629 10.3939C14.7173 10.0852 14.5921 9.70977 14.2834 9.55541L12.9043 8.86587H10.8789C10.8794 9.10204 11.0131 9.31779 11.2244 9.42344L13.7244 10.6734Z" fill="url(#paint13_radial_9072_41313)"/>
<path d="M13.7244 7.05831C14.0331 6.90394 14.4085 7.02908 14.5629 7.33782C14.7173 7.64655 14.5921 8.02197 14.2834 8.17634L12.9043 8.86587H10.8789C10.8794 8.62971 11.0131 8.41396 11.2244 8.30831L13.7244 7.05831Z" fill="url(#paint14_radial_9072_41313)"/>
</g>
<path d="M14.0857 10.4007C14.3944 10.555 14.7699 10.4299 14.9242 10.1212C15.0786 9.81243 14.9534 9.43701 14.6447 9.28264L13.2656 8.59311H11.2402C11.2407 8.82928 11.3744 9.04502 11.5857 9.15068L14.0857 10.4007Z" fill="url(#paint15_linear_9072_41313)"/>
<path d="M14.0857 6.78487C14.3944 6.6305 14.7699 6.75564 14.9242 7.06438C15.0786 7.37311 14.9534 7.74854 14.6447 7.9029L13.2656 8.59244H11.2402C11.2407 8.35627 11.3744 8.14052 11.5857 8.03487L14.0857 6.78487Z" fill="url(#paint16_linear_9072_41313)"/>
<path d="M9.02439 10.0062C5.42861 10.4342 2.54574 13.1914 1.89537 16.7354C1.82033 17.1508 1.95791 17.5631 2.22056 17.8464C2.63329 18.2241 3.2774 18.2178 3.67763 17.8149C4.09036 17.3995 4.75949 17.3964 5.17222 17.8119C5.58495 18.2274 6.25408 18.2274 6.66681 17.8119C7.07954 17.3964 7.74867 17.3775 8.1614 17.7929C8.54287 18.2399 9.19949 18.221 9.61847 17.8244C9.85611 17.5789 9.99994 17.2453 9.99994 16.8802V10.9C10.0062 10.3713 9.54968 9.94321 9.02439 10.0062Z" fill="url(#paint17_linear_9072_41313)"/>
<g filter="url(#filter3_f_9072_41313)">
<path d="M2.69415 18.007C2.5763 17.9608 2.46514 17.8927 2.36704 17.8029C2.15256 17.5716 2.02148 17.2543 2.02148 16.9194C2.02148 16.8442 2.0281 16.7681 2.04186 16.6919C3.0957 13.3096 4.81053 11.435 7.66602 10.5117L2.69415 18.007Z" fill="url(#paint18_linear_9072_41313)"/>
</g>
<g filter="url(#filter4_f_9072_41313)">
<path d="M7.23522 16.4149L6.47262 16.6328C6.09925 16.7395 5.75947 16.4024 5.88035 16.0334C6.19702 15.0666 6.79368 13.4705 7.58819 12.3537C8.01914 11.748 8.63982 12.1168 8.50256 12.8474C8.32029 13.8176 8.08007 14.9798 7.93646 15.6641C7.86056 16.0258 7.59051 16.3134 7.23522 16.4149Z" fill="#D9B2FD"/>
</g>
</g>
<defs>
<filter id="filter0_f_9072_41313" x="2.62097" y="11.498" width="13.2306" height="4.16992" filterUnits="userSpaceOnUse" color-interpolation-filters="sRGB">
<feFlood flood-opacity="0" result="BackgroundImageFix"/>
<feBlend mode="normal" in="SourceGraphic" in2="BackgroundImageFix" result="shape"/>
<feGaussianBlur stdDeviation="0.5" result="effect1_foregroundBlur_9072_41313"/>
</filter>
<filter id="filter1_f_9072_41313" x="4.5" y="6.49219" width="4.75012" height="4.74805" filterUnits="userSpaceOnUse" color-interpolation-filters="sRGB">
<feFlood flood-opacity="0" result="BackgroundImageFix"/>
<feBlend mode="normal" in="SourceGraphic" in2="BackgroundImageFix" result="shape"/>
<feGaussianBlur stdDeviation="0.25" result="effect1_foregroundBlur_9072_41313"/>
</filter>
<filter id="filter2_f_9072_41313" x="10.3789" y="6.49219" width="4.75012" height="4.74805" filterUnits="userSpaceOnUse" color-interpolation-filters="sRGB">
<feFlood flood-opacity="0" result="BackgroundImageFix"/>
<feBlend mode="normal" in="SourceGraphic" in2="BackgroundImageFix" result="shape"/>
<feGaussianBlur stdDeviation="0.25" result="effect1_foregroundBlur_9072_41313"/>
</filter>
<filter id="filter3_f_9072_41313" x="1.02148" y="9.51172" width="7.64453" height="9.49609" filterUnits="userSpaceOnUse" color-interpolation-filters="sRGB">
<feFlood flood-opacity="0" result="BackgroundImageFix"/>
<feBlend mode="normal" in="SourceGraphic" in2="BackgroundImageFix" result="shape"/>
<feGaussianBlur stdDeviation="0.5" result="effect1_foregroundBlur_9072_41313"/>
</filter>
<filter id="filter4_f_9072_41313" x="3.8555" y="10.0488" width="6.66647" height="8.60352" filterUnits="userSpaceOnUse" color-interpolation-filters="sRGB">
<feFlood flood-opacity="0" result="BackgroundImageFix"/>
<feBlend mode="normal" in="SourceGraphic" in2="BackgroundImageFix" result="shape"/>
<feGaussianBlur stdDeviation="1" result="effect1_foregroundBlur_9072_41313"/>
</filter>
<radialGradient id="paint0_radial_9072_41313" cx="0" cy="0" r="1" gradientUnits="userSpaceOnUse" gradientTransform="translate(15.9375 5.625) rotate(131.878) scale(24.3429)">
<stop stop-color="#FFF478"/>
<stop offset="0.474827" stop-color="#FFB02E"/>
<stop offset="1" stop-color="#F70A8D"/>
</radialGradient>
<radialGradient id="paint1_radial_9072_41313" cx="0" cy="0" r="1" gradientUnits="userSpaceOnUse" gradientTransform="translate(10 7.8125) rotate(101.31) scale(11.1541 14.2863)">
<stop offset="0.787821" stop-color="#F59639" stop-opacity="0"/>
<stop offset="0.972509" stop-color="#FF7DCE"/>
</radialGradient>
<radialGradient id="paint2_radial_9072_41313" cx="0" cy="0" r="1" gradientUnits="userSpaceOnUse" gradientTransform="translate(11.25 8.75) rotate(135) scale(25.6326)">
<stop offset="0.314853" stop-opacity="0"/>
<stop offset="1"/>
</radialGradient>
<radialGradient id="paint3_radial_9072_41313" cx="0" cy="0" r="1" gradientUnits="userSpaceOnUse" gradientTransform="translate(10 10.625) rotate(77.692) scale(17.5918)">
<stop offset="0.507903" stop-color="#7D6133" stop-opacity="0"/>
<stop offset="1" stop-color="#715B32"/>
</radialGradient>
<radialGradient id="paint4_radial_9072_41313" cx="0" cy="0" r="1" gradientUnits="userSpaceOnUse" gradientTransform="translate(10.3125 10.3125) rotate(55.7131) scale(8.32095 6.03145)">
<stop stop-color="#FFB849"/>
<stop offset="1" stop-color="#FFB847" stop-opacity="0"/>
</radialGradient>
<radialGradient id="paint5_radial_9072_41313" cx="0" cy="0" r="1" gradientUnits="userSpaceOnUse" gradientTransform="translate(12.8125 11.25) rotate(9.86581) scale(7.29539)">
<stop stop-color="#FFA64B"/>
<stop offset="0.900412" stop-color="#FFAE46" stop-opacity="0"/>
</radialGradient>
<radialGradient id="paint6_radial_9072_41313" cx="0" cy="0" r="1" gradientUnits="userSpaceOnUse" gradientTransform="translate(10.9375 9.375) rotate(43.9708) scale(36.9081)">
<stop offset="0.185425" stop-opacity="0"/>
<stop offset="1" stop-opacity="0.4"/>
</radialGradient>
<radialGradient id="paint7_radial_9072_41313" cx="0" cy="0" r="1" gradientUnits="userSpaceOnUse" gradientTransform="translate(14.1406 11.8645) rotate(130.975) scale(6.49322 4.4051)">
<stop offset="0.333333" stop-color="#C97007"/>
<stop offset="0.708333" stop-color="#F08B13" stop-opacity="0"/>
</radialGradient>
<radialGradient id="paint8_radial_9072_41313" cx="0" cy="0" r="1" gradientUnits="userSpaceOnUse" gradientTransform="translate(12.1191 13.9633) rotate(-102.821) scale(4.35667 10.5207)">
<stop offset="0.10265" stop-color="#482641"/>
<stop offset="0.298574" stop-color="#503A4A"/>
<stop offset="0.555606" stop-color="#483637"/>
</radialGradient>
<radialGradient id="paint9_radial_9072_41313" cx="0" cy="0" r="1" gradientUnits="userSpaceOnUse" gradientTransform="translate(6.11327 6.99219) rotate(110.225) scale(4.74573 6.20268)">
<stop stop-color="#9F5E0F"/>
<stop offset="0.889024" stop-color="#9F5E0F" stop-opacity="0"/>
</radialGradient>
<radialGradient id="paint10_radial_9072_41313" cx="0" cy="0" r="1" gradientUnits="userSpaceOnUse" gradientTransform="translate(6.11327 6.99219) rotate(110.225) scale(4.74573 6.20268)">
<stop stop-color="#9F5E0F"/>
<stop offset="0.889024" stop-color="#9F5E0F" stop-opacity="0"/>
</radialGradient>
<linearGradient id="paint11_linear_9072_41313" x1="6.61145" y1="10.9271" x2="4.99999" y2="7.58725" gradientUnits="userSpaceOnUse">
<stop offset="0.24955" stop-color="#482641"/>
<stop offset="0.406361" stop-color="#503A4A"/>
<stop offset="0.511203" stop-color="#482641"/>
</linearGradient>
<linearGradient id="paint12_linear_9072_41313" x1="5.53723" y1="8.68033" x2="7.03137" y2="5.75064" gradientUnits="userSpaceOnUse">
<stop offset="0.24955" stop-color="#482641"/>
<stop offset="0.406361" stop-color="#503A4A"/>
<stop offset="0.511203" stop-color="#482641"/>
</linearGradient>
<radialGradient id="paint13_radial_9072_41313" cx="0" cy="0" r="1" gradientUnits="userSpaceOnUse" gradientTransform="translate(16.7675 11.3672) rotate(-135.995) scale(8.34982 10.9132)">
<stop stop-color="#E9830A"/>
<stop offset="0.801655" stop-color="#F08B13" stop-opacity="0"/>
</radialGradient>
<radialGradient id="paint14_radial_9072_41313" cx="0" cy="0" r="1" gradientUnits="userSpaceOnUse" gradientTransform="translate(16.7675 11.3672) rotate(-135.995) scale(8.34982 10.9132)">
<stop stop-color="#E9830A"/>
<stop offset="0.801655" stop-color="#F08B13" stop-opacity="0"/>
</radialGradient>
<linearGradient id="paint15_linear_9072_41313" x1="13.3789" y1="10.9271" x2="14.9903" y2="7.58725" gradientUnits="userSpaceOnUse">
<stop offset="0.24955" stop-color="#482641"/>
<stop offset="0.406361" stop-color="#503A4A"/>
<stop offset="0.511203" stop-color="#482641"/>
</linearGradient>
<linearGradient id="paint16_linear_9072_41313" x1="14.4531" y1="8.68033" x2="12.959" y2="5.75064" gradientUnits="userSpaceOnUse">
<stop offset="0.24955" stop-color="#482641"/>
<stop offset="0.406361" stop-color="#503A4A"/>
<stop offset="0.511203" stop-color="#482641"/>
</linearGradient>
<linearGradient id="paint17_linear_9072_41313" x1="9.375" y1="12.5" x2="3.10948" y2="15.909" gradientUnits="userSpaceOnUse">
<stop stop-color="#FFF5FF"/>
<stop offset="1" stop-color="#F6C2FF"/>
</linearGradient>
<linearGradient id="paint18_linear_9072_41313" x1="3.125" y1="13.1255" x2="5" y2="14.688" gradientUnits="userSpaceOnUse">
<stop stop-color="#D5BACC"/>
<stop offset="1" stop-color="#F2D0FF"/>
</linearGradient>
<clipPath id="clip0_9072_41313">
<rect width="20" height="20" fill="white"/>
</clipPath>
</defs>
</svg>
