<svg width="24" height="24" viewBox="0 0 24 24" fill="none" xmlns="http://www.w3.org/2000/svg">
<path d="M19.8619 4.31362L12.8067 2.15424C12.2802 1.94859 11.6484 1.94859 11.0166 2.15424L4.0667 4.31362C2.59248 4.72494 1.75007 6.0617 2.06597 7.50129L3.22429 13.671C3.75079 16.5501 5.22501 18.8123 7.43634 20.1491C9.43707 21.383 10.9113 22 12.0696 22C13.2279 22 14.7021 21.383 16.7029 20.1491C18.9142 18.8123 20.3884 16.5501 20.9149 13.671L21.9679 7.50129C22.1785 6.0617 21.3361 4.72494 19.8619 4.31362ZM14.5968 13.4653C14.9127 13.7738 14.9127 14.2879 14.5968 14.5964C14.3862 14.6992 14.2809 14.8021 14.0703 14.8021C13.8597 14.8021 13.6491 14.6992 13.5438 14.5964L11.9643 13.054L10.3848 14.5964C10.1742 14.6992 10.0689 14.8021 9.85827 14.8021C9.64767 14.8021 9.43707 14.6992 9.33177 14.5964C9.01586 14.2879 9.01586 13.7738 9.33177 13.4653L10.9113 11.9229L9.33177 10.3805C9.01586 10.072 9.01586 9.55784 9.33177 9.24936C9.64767 8.94087 10.1742 8.94087 10.4901 9.24936L12.0696 10.7918L13.6491 9.24936C13.965 8.94087 14.4915 8.94087 14.8074 9.24936C15.1233 9.55784 15.1233 10.072 14.8074 10.3805L13.1226 11.9229L14.5968 13.4653Z" fill="#7A4102"/>
</svg>
