<svg width="290" height="200" viewBox="0 0 290 200" fill="none" xmlns="http://www.w3.org/2000/svg"
    preserveAspectRatio="none"
>
    <mask id="mask0_26_3" style="mask-type:luminance" maskUnits="userSpaceOnUse" x="0" y="0"
        width="290" height="200">
        <path
            d="M282 0H8C3.58172 0 0 3.58172 0 8V192C0 196.418 3.58172 200 8 200H282C286.418 200 290 196.418 290 192V8C290 3.58172 286.418 0 282 0Z"
            fill="white" />
    </mask>
    <g mask="url(#mask0_26_3)">
        <path
            d="M282 0H8C3.58172 0 0 3.58172 0 8V192C0 196.418 3.58172 200 8 200H282C286.418 200 290 196.418 290 192V8C290 3.58172 286.418 0 282 0Z"
            fill="url(#paint0_linear_26_3)" />
        <path
            d="M-1 188.235H291M-1 176.471H291M-1 164.706H291M-1 152.941H291M-1 141.176H291M-1 129.412H291M-1 117.647H291M-1 105.882H291M-1 94.118H291M-1 82.353H291M-1 70.5882H291M-1 58.8235H291M-1 47.0588H291M-1 35.2941H291M-1 23.5294H291M-1 11.7647H291M11.6957 0V200M24.3913 0V200M37.087 0V200M49.7826 0V200M62.4783 0V200M75.1739 0V200M87.87 0V200M100.565 0V200M113.261 0V200M125.957 0V200M138.652 0V200M151.348 0V200M164.043 0V200M176.739 0V200M189.435 0V200M202.13 0V200M214.826 0V200M227.522 0V200M240.217 0V200M252.913 0V200M265.609 0V200M278.304 0V200M-1 200H291V0H-1V200Z"
            stroke="url(#paint1_linear_26_3)" />
       
        <g opacity="0.2">
            <path
                d="M246.415 135.363L234.215 142.406C228.945 145.449 227.612 150.424 230.655 155.694L237.698 167.894C240.741 173.164 245.716 174.497 250.986 171.454L263.186 164.411C268.456 161.368 269.789 156.393 266.746 151.123L259.703 138.923C256.66 133.653 251.685 132.32 246.415 135.363ZM255.258 148.571C255.048 149.357 254.528 149.989 253.864 150.372C253.2 150.755 252.392 150.89 251.607 150.679L250.428 150.364L255.795 159.659C256.634 161.111 256.143 162.944 254.69 163.783C253.238 164.621 251.405 164.13 250.566 162.678L245.2 153.382L244.884 154.561C244.463 156.132 242.803 157.09 241.232 156.669C239.661 156.248 238.703 154.588 239.124 153.017L241.316 144.835C241.404 144.508 241.599 144.174 241.817 143.882C241.876 143.793 241.959 143.745 242.018 143.655C242.178 143.453 242.361 143.291 242.61 143.148C242.693 143.1 242.776 143.052 242.859 143.004C243.15 142.836 243.423 142.734 243.785 142.691C243.827 142.667 243.827 142.667 243.868 142.643C244.231 142.599 244.575 142.622 244.903 142.709C244.968 142.727 244.968 142.727 245.01 142.703L253.191 144.895C254.762 145.316 255.721 146.976 255.258 148.571Z"
                fill="white" />
            <path opacity="0.4"
                d="M266.909 160.988L269.856 166.093L186.862 214.009L183.364 207.951C177.878 198.448 181.164 186.315 190.667 180.828L231.541 157.229L237.698 167.894C240.741 173.164 245.716 174.497 250.986 171.454L263.186 164.411C264.846 163.452 266.089 162.347 266.909 160.988Z"
                fill="white" />
            <path
                d="M186.862 214.009L204.735 244.966C210.221 254.469 222.372 257.689 231.875 252.203L280.426 224.172C289.929 218.685 293.215 206.552 287.729 197.049L269.856 166.092L186.862 214.009ZM231.526 233.869L223.226 238.661C221.525 239.643 219.3 239.047 218.317 237.345C217.335 235.644 217.931 233.419 219.633 232.436L227.932 227.645C229.633 226.662 231.859 227.259 232.841 228.96C233.823 230.661 233.227 232.887 231.526 233.869ZM258.499 218.296L241.9 227.88C240.199 228.862 237.973 228.266 236.991 226.564C236.009 224.863 236.605 222.637 238.306 221.655L254.905 212.072C256.607 211.089 258.832 211.686 259.814 213.387C260.797 215.089 260.2 217.314 258.499 218.296Z"
                fill="white" />
        </g>
    </g>
    <defs>
        <linearGradient id="paint0_linear_26_3" x1="145" y1="0" x2="145" y2="200"
            gradientUnits="userSpaceOnUse">
            <stop stop-color="#7B61FF" />
            <stop offset="1" stop-color="#5D30F7" />
        </linearGradient>
        <linearGradient id="paint1_linear_26_3" x1="145" y1="0" x2="145" y2="200"
            gradientUnits="userSpaceOnUse">
            <stop stop-color="white" stop-opacity="0.1" />
            <stop offset="1" stop-color="white" stop-opacity="0" />
        </linearGradient>
    </defs>
</svg>