<svg width="24" height="24" viewBox="0 0 24 24" fill="none" xmlns="http://www.w3.org/2000/svg">
    <path opacity="0.4"
        d="M22.02 16.8203L18.89 9.50027C18.32 8.16027 17.47 7.40027 16.5 7.35027C15.54 7.30027 14.61 7.97027 13.9 9.25027L12 12.6603C11.6 13.3803 11.03 13.8103 10.41 13.8603C9.78 13.9203 9.15 13.5903 8.64 12.9403L8.42 12.6603C7.71 11.7703 6.83 11.3403 5.93 11.4303C5.03 11.5203 4.26 12.1403 3.75 13.1503L2.02 16.6003C1.4 17.8503 1.46 19.3003 2.19 20.4803C2.92 21.6603 4.19 22.3703 5.58 22.3703H18.34C19.68 22.3703 20.93 21.7003 21.67 20.5803C22.43 19.4603 22.55 18.0503 22.02 16.8203Z"
        fill="#21BC99" />
    <path
        d="M6.97 8.37914C8.83672 8.37914 10.35 6.86586 10.35 4.99914C10.35 3.13242 8.83672 1.61914 6.97 1.61914C5.10327 1.61914 3.59 3.13242 3.59 4.99914C3.59 6.86586 5.10327 8.37914 6.97 8.37914Z"
        fill="#21BC99" />
</svg>