<svg viewBox="0 0 290 200" fill="none" xmlns="http://www.w3.org/2000/svg"
    preserveAspectRatio="none"
>
    <g clip-path="url(#clip0_4524_24618)">
        <rect width="290" height="200" rx="8" fill="url(#paint0_linear_4524_24618)" />
        <path
            d="M-1 188.235H291M-1 176.471H291M-1 164.706H291M-1 152.941H291M-1 141.176H291M-1 129.412L291 129.412M-1 117.647H291M-1 105.882H291M-1 94.1177H291M-1 82.353H291M-1 70.5882H291M-1 58.8235H291M-1 47.0588H291M-1 35.2941H291M-1 23.5294H291M-1 11.7647H291M11.6957 1.52588e-05V200M24.3913 1.52588e-05V200M37.087 1.52588e-05V200M49.7826 1.52588e-05V200M62.4783 1.52588e-05V200M75.1739 1.52588e-05V200M87.8696 1.52588e-05V200M100.565 1.52588e-05V200M113.261 1.52588e-05V200M125.957 1.52588e-05V200M138.652 1.52588e-05V200M151.348 1.52588e-05V200M164.043 1.52588e-05V200M176.739 1.52588e-05V200M189.435 1.52588e-05V200M202.13 1.52588e-05V200M214.826 1.52588e-05V200M227.522 1.52588e-05V200M240.217 1.52588e-05V200M252.913 1.52588e-05V200M265.609 1.52588e-05V200M278.304 1.52588e-05V200M-1 200H291V0H-1V200Z"
            stroke="url(#paint1_linear_4524_24618)" />
      
       
       
        <g opacity="0.2">
            <path
                d="M263.186 164.411L250.986 171.454C245.716 174.497 240.741 173.164 237.698 167.894L230.655 155.694C227.612 150.424 228.945 145.449 234.215 142.406L246.415 135.363C251.685 132.32 256.66 133.653 259.703 138.923L266.746 151.123C269.789 156.393 268.456 161.368 263.186 164.411ZM256.169 150.148C255.383 149.937 254.576 150.072 253.912 150.455C253.248 150.838 252.727 151.471 252.517 152.256L252.201 153.434L246.835 144.139C245.996 142.687 244.163 142.196 242.711 143.034C241.259 143.873 240.767 145.705 241.606 147.158L246.973 156.453L245.794 156.138C244.224 155.717 242.564 156.675 242.143 158.246C241.722 159.817 242.68 161.477 244.251 161.898L252.433 164.09C252.76 164.178 253.147 164.176 253.509 164.133C253.616 164.126 253.699 164.078 253.806 164.072C254.061 164.035 254.293 163.957 254.542 163.813C254.625 163.765 254.708 163.717 254.791 163.669C255.081 163.502 255.306 163.316 255.525 163.024C255.566 163 255.566 163 255.608 162.976C255.826 162.684 255.979 162.374 256.067 162.047C256.085 161.982 256.085 161.982 256.126 161.958L258.319 153.776C258.739 152.205 257.781 150.545 256.169 150.148Z"
                fill="white" />
            <path opacity="0.4"
                d="M266.909 160.988L269.856 166.093L186.862 214.009L183.364 207.951C177.878 198.448 181.164 186.315 190.667 180.828L231.541 157.229L237.698 167.894C240.741 173.164 245.716 174.497 250.986 171.454L263.186 164.411C264.846 163.452 266.089 162.347 266.909 160.988Z"
                fill="white" />
            <path
                d="M186.862 214.009L204.735 244.966C210.221 254.469 222.372 257.689 231.875 252.203L280.426 224.172C289.929 218.685 293.215 206.552 287.729 197.049L269.856 166.092L186.862 214.009ZM231.526 233.869L223.226 238.661C221.525 239.643 219.3 239.047 218.317 237.345C217.335 235.644 217.931 233.419 219.633 232.436L227.932 227.645C229.633 226.662 231.859 227.259 232.841 228.96C233.823 230.661 233.227 232.887 231.526 233.869ZM258.499 218.296L241.9 227.88C240.199 228.862 237.973 228.266 236.991 226.564C236.009 224.863 236.605 222.637 238.306 221.655L254.905 212.072C256.607 211.089 258.832 211.686 259.814 213.387C260.797 215.089 260.2 217.314 258.499 218.296Z"
                fill="white" />
        </g>
    </g>
    <defs>
        <filter id="filter0_dd_4524_24618" x="45" y="87.5" width="200" height="72"
            filterUnits="userSpaceOnUse" color-interpolation-filters="sRGB">
            <feFlood flood-opacity="0" result="BackgroundImageFix" />
            <feColorMatrix in="SourceAlpha" type="matrix"
                values="0 0 0 0 0 0 0 0 0 0 0 0 0 0 0 0 0 0 127 0" result="hardAlpha" />
            <feOffset dx="4" dy="4" />
            <feGaussianBlur stdDeviation="6" />
            <feColorMatrix type="matrix"
                values="0 0 0 0 0.0330556 0 0 0 0 0.0333333 0 0 0 0 0.0332663 0 0 0 0.1 0" />
            <feBlend mode="multiply" in2="BackgroundImageFix" result="effect1_dropShadow_4524_24618" />
            <feColorMatrix in="SourceAlpha" type="matrix"
                values="0 0 0 0 0 0 0 0 0 0 0 0 0 0 0 0 0 0 127 0" result="hardAlpha" />
            <feOffset dx="-4" dy="-4" />
            <feGaussianBlur stdDeviation="6" />
            <feColorMatrix type="matrix" values="0 0 0 0 1 0 0 0 0 1 0 0 0 0 1 0 0 0 1 0" />
            <feBlend mode="multiply" in2="effect1_dropShadow_4524_24618"
                result="effect2_dropShadow_4524_24618" />
            <feBlend mode="normal" in="SourceGraphic" in2="effect2_dropShadow_4524_24618"
                result="shape" />
        </filter>
        <linearGradient id="paint0_linear_4524_24618" x1="145" y1="0" x2="145" y2="200"
            gradientUnits="userSpaceOnUse">
            <stop stop-color="#38C9A6" />
            <stop offset="1" stop-color="#168B73" />
        </linearGradient>
        <linearGradient id="paint1_linear_4524_24618" x1="145" y1="0" x2="145" y2="200"
            gradientUnits="userSpaceOnUse">
            <stop stop-color="white" stop-opacity="0.1" />
            <stop offset="1" stop-color="white" stop-opacity="0" />
        </linearGradient>
        <clipPath id="clip0_4524_24618">
            <rect width="290" height="200" rx="8" fill="white" />
        </clipPath>
    </defs>
</svg>