<svg width="24" height="24" viewBox="0 0 24 24" fill="none" xmlns="http://www.w3.org/2000/svg">
<path d="M12 3C10.22 3 8.47991 3.52784 6.99987 4.51677C5.51983 5.50571 4.36628 6.91131 3.68509 8.55585C3.0039 10.2004 2.82567 12.01 3.17294 13.7558C3.5202 15.5016 4.37737 17.1053 5.63604 18.364C6.89471 19.6226 8.49836 20.4798 10.2442 20.8271C11.99 21.1743 13.7996 20.9961 15.4442 20.3149C17.0887 19.6337 18.4943 18.4802 19.4832 17.0001C20.4722 15.5201 21 13.78 21 12C21.0001 10.8181 20.7674 9.64771 20.3151 8.55573C19.8629 7.46376 19.1999 6.47157 18.3642 5.63582C17.5284 4.80007 16.5362 4.13714 15.4443 3.68488C14.3523 3.23263 13.1819 2.9999 12 3ZM14.8616 16.6372C14.8279 16.7212 14.7766 16.797 14.7112 16.8596C14.6458 16.9222 14.5678 16.97 14.4824 17C14.397 17.03 14.3062 17.0413 14.2161 17.0333C14.1259 17.0253 14.0385 16.9981 13.9598 16.9536L11.5166 15.0551L9.94847 16.5018C9.91209 16.5287 9.86952 16.546 9.8247 16.5521C9.77988 16.5582 9.73423 16.553 9.69197 16.5368L9.99257 13.8472L10.0022 13.8549L10.0083 13.8018C10.0083 13.8018 14.4048 9.799 14.5839 9.62846C14.7653 9.45836 14.7054 9.42146 14.7054 9.42146C14.7158 9.21399 14.3801 9.42146 14.3801 9.42146L8.5548 13.1691L6.12886 12.3429C6.12886 12.3429 5.75626 12.2092 5.72116 11.9154C5.68426 11.6238 6.141 11.4654 6.141 11.4654L15.7863 7.63364C15.7863 7.63364 16.5792 7.28037 16.5792 7.8654L14.8616 16.6372Z" fill="#232631"/>
</svg>
