<svg width="40" height="25" viewBox="0 0 40 25" fill="none" xmlns="http://www.w3.org/2000/svg">
<path d="M8.68101 5.47559C14.9323 -0.603029 25.0677 -0.603029 31.3191 5.47559L32.0714 6.20709C32.384 6.51099 32.384 7.00379 32.0714 7.30769L29.4978 9.81029C29.3415 9.96219 29.0881 9.96219 28.9318 9.81029L27.8965 8.80359C23.5354 4.56299 16.4647 4.56299 12.1036 8.80359L10.9948 9.88169C10.8385 10.0336 10.5851 10.0336 10.4288 9.88169L7.85522 7.37909C7.54266 7.07519 7.54266 6.58239 7.85522 6.27849L8.68101 5.47559ZM36.6417 10.6511L38.9322 12.8783C39.2448 13.1823 39.2448 13.675 38.9322 13.979L28.6039 24.022C28.2913 24.3259 27.7846 24.3259 27.472 24.022L20.1416 16.8942C20.0634 16.8182 19.9367 16.8182 19.8586 16.8942L12.5283 24.022C12.2157 24.3259 11.709 24.3259 11.3964 24.022L1.0678 13.9788C0.755233 13.6749 0.755233 13.1821 1.0678 12.8782L3.35838 10.6509C3.67095 10.347 4.17772 10.347 4.49029 10.6509L11.8208 17.7789C11.8989 17.8549 12.0256 17.8549 12.1038 17.7789L19.4339 10.6509C19.7465 10.347 20.2533 10.347 20.5658 10.6509L27.8964 17.7789C27.9745 17.8549 28.1012 17.8549 28.1794 17.7789L35.5098 10.6511C35.8223 10.3471 36.3291 10.3471 36.6417 10.6511Z" fill="#3286F4"/>
</svg>
