<svg width="40" height="40" viewBox="0 0 40 40" fill="none" xmlns="http://www.w3.org/2000/svg">
    <rect width="40" height="40" rx="20" fill="#FFC0AD" />
    <path
        d="M30.0133 11.7993L22.0933 7.22602C20.8 6.47935 19.2 6.47935 17.8933 7.22602L9.98667 11.7993C8.69333 12.546 7.89333 13.9327 7.89333 15.4393V24.5593C7.89333 26.0527 8.69333 27.4393 9.98667 28.1993L17.9067 32.7727C19.2 33.5194 20.8 33.5194 22.1067 32.7727L30.0267 28.1993C31.32 27.4527 32.12 26.066 32.12 24.5593V15.4393C32.1067 13.9327 31.3067 12.5593 30.0133 11.7993ZM19 14.3327C19 13.786 19.4533 13.3327 20 13.3327C20.5467 13.3327 21 13.786 21 14.3327V21.3327C21 21.8793 20.5467 22.3327 20 22.3327C19.4533 22.3327 19 21.8793 19 21.3327V14.3327ZM21.2267 26.1727C21.16 26.3327 21.0667 26.4793 20.9467 26.6127C20.6933 26.866 20.36 26.9993 20 26.9993C19.8267 26.9993 19.6533 26.9594 19.4933 26.8927C19.32 26.826 19.1867 26.7327 19.0533 26.6127C18.9333 26.4793 18.84 26.3327 18.76 26.1727C18.6933 26.0127 18.6667 25.8393 18.6667 25.666C18.6667 25.3193 18.8 24.9727 19.0533 24.7193C19.1867 24.5993 19.32 24.506 19.4933 24.4394C19.9867 24.226 20.5733 24.346 20.9467 24.7193C21.0667 24.8527 21.16 24.986 21.2267 25.1593C21.2933 25.3193 21.3333 25.4927 21.3333 25.666C21.3333 25.8393 21.2933 26.0127 21.2267 26.1727Z"
        fill="#FF3236" />
</svg>